<svg xmlns="http://www.w3.org/2000/svg" viewBox="0 0 512 512">
  <defs>
    <linearGradient id="bg" x1="0" y1="0" x2="1" y2="1">
      <stop offset="0" stop-color="#F6EDD8"/>
      <stop offset="1" stop-color="#EBDDBE"/>
    </linearGradient>
    <pattern id="ic-plain" width="0.4" height="0.4" patternUnits="userSpaceOnUse"><rect width="0.4" height="0.4" fill="none"/></pattern>
<pattern id="ic-dots" width="0.34" height="0.34" patternUnits="userSpaceOnUse"><circle cx="0.09" cy="0.09" r="0.052" fill="rgba(255,255,255,0.30)"/><circle cx="0.26" cy="0.26" r="0.036" fill="rgba(0,0,0,0.10)"/></pattern>
<pattern id="ic-stripe" width="0.36" height="0.36" patternUnits="userSpaceOnUse" patternTransform="rotate(45)"><rect width="0.16" height="0.36" fill="rgba(255,255,255,0.30)"/></pattern>
<pattern id="ic-check" width="0.5" height="0.5" patternUnits="userSpaceOnUse"><rect width="0.25" height="0.25" fill="rgba(255,255,255,0.30)"/><rect x="0.25" y="0.25" width="0.25" height="0.25" fill="rgba(255,255,255,0.30)"/></pattern>
<pattern id="ic-diag" width="0.30" height="0.30" patternUnits="userSpaceOnUse" patternTransform="rotate(45)"><rect width="0.13" height="0.30" fill="rgba(255,255,255,0.30)"/><rect x="0.15" width="0.05" height="0.30" fill="rgba(255,255,255,0.30)"/></pattern>
  </defs>
  <rect width="512" height="512" rx="104" fill="url(#bg)"/>
  <!-- рама стеганого одеяла -->
  <rect x="20" y="20" width="472" height="472" rx="88" fill="none" stroke="#8B5E3C" stroke-width="13"/>
  <rect x="34" y="34" width="444" height="444" rx="76" fill="none" stroke="#8B5E3C" stroke-width="5" stroke-dasharray="22 15" opacity="0.65"/>
  <!-- лоскутное полотно из фигурок игры -->
  
  <g transform="translate(58 58)">
    <g transform="scale(66)">
      <path d="M 0 0.21 L 0 0.21 Q 0 0 0.21 0 L 2.79 0 Q 3 0 3 0.21 L 3 0.79 Q 3 1 2.79 1 L 2.21 1 Q 2 1 2 1.21 L 2 2.79 Q 2 3 1.79 3 L 1.21 3 Q 1 3 1 2.79 L 1 1.21 Q 1 1 0.79 1 L 0.21 1 Q 0 1 0 0.79 Z " transform="translate(1.5 1.5) scale(0.88) translate(-1.5 -1.5)" fill="#3E7C74"/>
      <path d="M 0 0.21 L 0 0.21 Q 0 0 0.21 0 L 2.79 0 Q 3 0 3 0.21 L 3 0.79 Q 3 1 2.79 1 L 2.21 1 Q 2 1 2 1.21 L 2 2.79 Q 2 3 1.79 3 L 1.21 3 Q 1 3 1 2.79 L 1 1.21 Q 1 1 0.79 1 L 0.21 1 Q 0 1 0 0.79 Z " transform="translate(1.5 1.5) scale(0.88) translate(-1.5 -1.5)" fill="url(#ic-hatch)"/>
      <path d="M 0 0.21 L 0 0.21 Q 0 0 0.21 0 L 2.79 0 Q 3 0 3 0.21 L 3 0.79 Q 3 1 2.79 1 L 2.21 1 Q 2 1 2 1.21 L 2 2.79 Q 2 3 1.79 3 L 1.21 3 Q 1 3 1 2.79 L 1 1.21 Q 1 1 0.79 1 L 0.21 1 Q 0 1 0 0.79 Z " transform="translate(1.5 1.5) scale(0.88) translate(-1.5 -1.5)" fill="none" stroke="#104e46" stroke-width="0.05"/>
      <path d="M 0 0.21 L 0 0.21 Q 0 0 0.21 0 L 2.79 0 Q 3 0 3 0.21 L 3 0.79 Q 3 1 2.79 1 L 2.21 1 Q 2 1 2 1.21 L 2 2.79 Q 2 3 1.79 3 L 1.21 3 Q 1 3 1 2.79 L 1 1.21 Q 1 1 0.79 1 L 0.21 1 Q 0 1 0 0.79 Z " transform="translate(1.5 1.5) scale(0.88) translate(-1.5 -1.5)" fill="none" stroke="#00362e" stroke-width="0.065" stroke-dasharray="0.17 0.12" stroke-linecap="round"/>
      
    </g>
  </g>
  <g transform="translate(190 58)">
    <g transform="scale(66)">
      <path d="M 1 0.21 L 1 0.21 Q 1 0 1.21 0 L 1.79 0 Q 2 0 2 0.21 L 2 1.79 Q 2 2 1.79 2 L 1.21 2 Q 1 2 1 2.21 L 1 2.79 Q 1 3 0.79 3 L 0.21 3 Q 0 3 0 2.79 L 0 1.21 Q 0 1 0.21 1 L 0.79 1 Q 1 1 1 0.79 Z " transform="translate(1 1.5) scale(0.88) translate(-1 -1.5)" fill="#8E5A79"/>
      <path d="M 1 0.21 L 1 0.21 Q 1 0 1.21 0 L 1.79 0 Q 2 0 2 0.21 L 2 1.79 Q 2 2 1.79 2 L 1.21 2 Q 1 2 1 2.21 L 1 2.79 Q 1 3 0.79 3 L 0.21 3 Q 0 3 0 2.79 L 0 1.21 Q 0 1 0.21 1 L 0.79 1 Q 1 1 1 0.79 Z " transform="translate(1 1.5) scale(0.88) translate(-1 -1.5)" fill="url(#ic-hatch)"/>
      <path d="M 1 0.21 L 1 0.21 Q 1 0 1.21 0 L 1.79 0 Q 2 0 2 0.21 L 2 1.79 Q 2 2 1.79 2 L 1.21 2 Q 1 2 1 2.21 L 1 2.79 Q 1 3 0.79 3 L 0.21 3 Q 0 3 0 2.79 L 0 1.21 Q 0 1 0.21 1 L 0.79 1 Q 1 1 1 0.79 Z " transform="translate(1 1.5) scale(0.88) translate(-1 -1.5)" fill="none" stroke="#602c4b" stroke-width="0.05"/>
      <path d="M 1 0.21 L 1 0.21 Q 1 0 1.21 0 L 1.79 0 Q 2 0 2 0.21 L 2 1.79 Q 2 2 1.79 2 L 1.21 2 Q 1 2 1 2.21 L 1 2.79 Q 1 3 0.79 3 L 0.21 3 Q 0 3 0 2.79 L 0 1.21 Q 0 1 0.21 1 L 0.79 1 Q 1 1 1 0.79 Z " transform="translate(1 1.5) scale(0.88) translate(-1 -1.5)" fill="none" stroke="#481433" stroke-width="0.065" stroke-dasharray="0.17 0.12" stroke-linecap="round"/>
      
    </g>
  </g>
  <g transform="translate(322 58)">
    <g transform="scale(66)">
      <path d="M 0 0.21 L 0 0.21 Q 0 0 0.21 0 L 0.79 0 Q 1 0 1 0.21 L 1 1.79 Q 1 2 1.21 2 L 1.79 2 Q 2 2 2 2.21 L 2 2.79 Q 2 3 1.79 3 L 1.21 3 Q 1 3 1 3.21 L 1 3.79 Q 1 4 0.79 4 L 0.21 4 Q 0 4 0 3.79 Z " transform="translate(1 2) scale(0.88) translate(-1 -2)" fill="#EFE0BC"/>
      <path d="M 0 0.21 L 0 0.21 Q 0 0 0.21 0 L 0.79 0 Q 1 0 1 0.21 L 1 1.79 Q 1 2 1.21 2 L 1.79 2 Q 2 2 2 2.21 L 2 2.79 Q 2 3 1.79 3 L 1.21 3 Q 1 3 1 3.21 L 1 3.79 Q 1 4 0.79 4 L 0.21 4 Q 0 4 0 3.79 Z " transform="translate(1 2) scale(0.88) translate(-1 -2)" fill="url(#ic-dots)"/>
      <path d="M 0 0.21 L 0 0.21 Q 0 0 0.21 0 L 0.79 0 Q 1 0 1 0.21 L 1 1.79 Q 1 2 1.21 2 L 1.79 2 Q 2 2 2 2.21 L 2 2.79 Q 2 3 1.79 3 L 1.21 3 Q 1 3 1 3.21 L 1 3.79 Q 1 4 0.79 4 L 0.21 4 Q 0 4 0 3.79 Z " transform="translate(1 2) scale(0.88) translate(-1 -2)" fill="none" stroke="#c1b28e" stroke-width="0.05"/>
      <path d="M 0 0.21 L 0 0.21 Q 0 0 0.21 0 L 0.79 0 Q 1 0 1 0.21 L 1 1.79 Q 1 2 1.21 2 L 1.79 2 Q 2 2 2 2.21 L 2 2.79 Q 2 3 1.79 3 L 1.21 3 Q 1 3 1 3.21 L 1 3.79 Q 1 4 0.79 4 L 0.21 4 Q 0 4 0 3.79 Z " transform="translate(1 2) scale(0.88) translate(-1 -2)" fill="none" stroke="#a99a76" stroke-width="0.065" stroke-dasharray="0.17 0.12" stroke-linecap="round"/>
      
    </g>
  </g>
  <g transform="translate(388 58)">
    <g transform="scale(66)">
      <path d="M 0 0.21 L 0 0.21 Q 0 0 0.21 0 L 0.79 0 Q 1 0 1 0.21 L 1 1.79 Q 1 2 0.79 2 L 0.21 2 Q 0 2 0 1.79 Z " transform="translate(0.5 1) scale(0.88) translate(-0.5 -1)" fill="#C0603A"/>
      <path d="M 0 0.21 L 0 0.21 Q 0 0 0.21 0 L 0.79 0 Q 1 0 1 0.21 L 1 1.79 Q 1 2 0.79 2 L 0.21 2 Q 0 2 0 1.79 Z " transform="translate(0.5 1) scale(0.88) translate(-0.5 -1)" fill="url(#ic-stripe)"/>
      <path d="M 0 0.21 L 0 0.21 Q 0 0 0.21 0 L 0.79 0 Q 1 0 1 0.21 L 1 1.79 Q 1 2 0.79 2 L 0.21 2 Q 0 2 0 1.79 Z " transform="translate(0.5 1) scale(0.88) translate(-0.5 -1)" fill="none" stroke="#92320c" stroke-width="0.05"/>
      <path d="M 0 0.21 L 0 0.21 Q 0 0 0.21 0 L 0.79 0 Q 1 0 1 0.21 L 1 1.79 Q 1 2 0.79 2 L 0.21 2 Q 0 2 0 1.79 Z " transform="translate(0.5 1) scale(0.88) translate(-0.5 -1)" fill="none" stroke="#7a1a00" stroke-width="0.065" stroke-dasharray="0.17 0.12" stroke-linecap="round"/>
      
    </g>
  </g>
  <g transform="translate(58 124)">
    <g transform="scale(66)">
      <path d="M 0 0.21 L 0 0.21 Q 0 0 0.21 0 L 0.79 0 Q 1 0 1 0.21 L 1 2.79 Q 1 3 1.21 3 L 1.79 3 Q 2 3 2 3.21 L 2 3.79 Q 2 4 1.79 4 L 0.21 4 Q 0 4 0 3.79 Z " transform="translate(1 2) scale(0.88) translate(-1 -2)" fill="#A54628"/>
      <path d="M 0 0.21 L 0 0.21 Q 0 0 0.21 0 L 0.79 0 Q 1 0 1 0.21 L 1 2.79 Q 1 3 1.21 3 L 1.79 3 Q 2 3 2 3.21 L 2 3.79 Q 2 4 1.79 4 L 0.21 4 Q 0 4 0 3.79 Z " transform="translate(1 2) scale(0.88) translate(-1 -2)" fill="url(#ic-stripe)"/>
      <path d="M 0 0.21 L 0 0.21 Q 0 0 0.21 0 L 0.79 0 Q 1 0 1 0.21 L 1 2.79 Q 1 3 1.21 3 L 1.79 3 Q 2 3 2 3.21 L 2 3.79 Q 2 4 1.79 4 L 0.21 4 Q 0 4 0 3.79 Z " transform="translate(1 2) scale(0.88) translate(-1 -2)" fill="none" stroke="#771800" stroke-width="0.05"/>
      <path d="M 0 0.21 L 0 0.21 Q 0 0 0.21 0 L 0.79 0 Q 1 0 1 0.21 L 1 2.79 Q 1 3 1.21 3 L 1.79 3 Q 2 3 2 3.21 L 2 3.79 Q 2 4 1.79 4 L 0.21 4 Q 0 4 0 3.79 Z " transform="translate(1 2) scale(0.88) translate(-1 -2)" fill="none" stroke="#5f0000" stroke-width="0.065" stroke-dasharray="0.17 0.12" stroke-linecap="round"/>
      
    <g transform="translate(0.5 1.5) scale(0.62)">
      <circle r="0.46" cy="0.06" fill="#2E1D0E" opacity="0.25"/>
      <circle r="0.42" fill="#F8F0DD" stroke="#5B3B20" stroke-width="0.10"/>
      <circle r="0.29" fill="none" stroke="#C9B583" stroke-width="0.055"/>
      <circle r="0.095" cx="-0.125" cy="-0.125" fill="#5B3B20"/>
      <circle r="0.095" cx="0.125" cy="-0.125" fill="#5B3B20"/>
      <circle r="0.095" cx="-0.125" cy="0.125" fill="#5B3B20"/>
      <circle r="0.095" cx="0.125" cy="0.125" fill="#5B3B20"/>
      <path d="M -0.28 -0.13 A 0.31 0.31 0 0 1 -0.05 -0.28" stroke="#ffffff" stroke-width="0.055" opacity="0.6" fill="none" stroke-linecap="round"/>
    </g>
    </g>
  </g>
  <g transform="translate(256 190)">
    <g transform="scale(66)">
      <path d="M 0 0.21 L 0 0.21 Q 0 0 0.21 0 L 0.79 0 Q 1 0 1 0.21 L 1 1.79 Q 1 2 1.21 2 L 1.79 2 Q 2 2 2 2.21 L 2 2.79 Q 2 3 1.79 3 L 0.21 3 Q 0 3 0 2.79 Z " transform="translate(1 1.5) scale(0.88) translate(-1 -1.5)" fill="#C08A3E"/>
      <path d="M 0 0.21 L 0 0.21 Q 0 0 0.21 0 L 0.79 0 Q 1 0 1 0.21 L 1 1.79 Q 1 2 1.21 2 L 1.79 2 Q 2 2 2 2.21 L 2 2.79 Q 2 3 1.79 3 L 0.21 3 Q 0 3 0 2.79 Z " transform="translate(1 1.5) scale(0.88) translate(-1 -1.5)" fill="url(#ic-check)"/>
      <path d="M 0 0.21 L 0 0.21 Q 0 0 0.21 0 L 0.79 0 Q 1 0 1 0.21 L 1 1.79 Q 1 2 1.21 2 L 1.79 2 Q 2 2 2 2.21 L 2 2.79 Q 2 3 1.79 3 L 0.21 3 Q 0 3 0 2.79 Z " transform="translate(1 1.5) scale(0.88) translate(-1 -1.5)" fill="none" stroke="#925c10" stroke-width="0.05"/>
      <path d="M 0 0.21 L 0 0.21 Q 0 0 0.21 0 L 0.79 0 Q 1 0 1 0.21 L 1 1.79 Q 1 2 1.21 2 L 1.79 2 Q 2 2 2 2.21 L 2 2.79 Q 2 3 1.79 3 L 0.21 3 Q 0 3 0 2.79 Z " transform="translate(1 1.5) scale(0.88) translate(-1 -1.5)" fill="none" stroke="#7a4400" stroke-width="0.065" stroke-dasharray="0.17 0.12" stroke-linecap="round"/>
      
    </g>
  </g>
  <g transform="translate(124 256)">
    <g transform="scale(66)">
      <path d="M 0 0.21 L 0 0.21 Q 0 0 0.21 0 L 1.79 0 Q 2 0 2 0.21 L 2 1.79 Q 2 2 1.79 2 L 1.21 2 Q 1 2 1 1.79 L 1 1.21 Q 1 1 0.79 1 L 0.21 1 Q 0 1 0 0.79 Z " transform="translate(1 1) scale(0.88) translate(-1 -1)" fill="#8AA06F"/>
      <path d="M 0 0.21 L 0 0.21 Q 0 0 0.21 0 L 1.79 0 Q 2 0 2 0.21 L 2 1.79 Q 2 2 1.79 2 L 1.21 2 Q 1 2 1 1.79 L 1 1.21 Q 1 1 0.79 1 L 0.21 1 Q 0 1 0 0.79 Z " transform="translate(1 1) scale(0.88) translate(-1 -1)" fill="url(#ic-dots)"/>
      <path d="M 0 0.21 L 0 0.21 Q 0 0 0.21 0 L 1.79 0 Q 2 0 2 0.21 L 2 1.79 Q 2 2 1.79 2 L 1.21 2 Q 1 2 1 1.79 L 1 1.21 Q 1 1 0.79 1 L 0.21 1 Q 0 1 0 0.79 Z " transform="translate(1 1) scale(0.88) translate(-1 -1)" fill="none" stroke="#5c7241" stroke-width="0.05"/>
      <path d="M 0 0.21 L 0 0.21 Q 0 0 0.21 0 L 1.79 0 Q 2 0 2 0.21 L 2 1.79 Q 2 2 1.79 2 L 1.21 2 Q 1 2 1 1.79 L 1 1.21 Q 1 1 0.79 1 L 0.21 1 Q 0 1 0 0.79 Z " transform="translate(1 1) scale(0.88) translate(-1 -1)" fill="none" stroke="#445a29" stroke-width="0.065" stroke-dasharray="0.17 0.12" stroke-linecap="round"/>
      
    </g>
  </g>
  <g transform="translate(322 256)">
    <g transform="scale(66)">
      <path d="M 1 0.21 L 1 0.21 Q 1 0 1.21 0 L 1.79 0 Q 2 0 2 0.21 L 2 2.79 Q 2 3 1.79 3 L 0.21 3 Q 0 3 0 2.79 L 0 2.21 Q 0 2 0.21 2 L 0.79 2 Q 1 2 1 1.79 Z " transform="translate(1 1.5) scale(0.88) translate(-1 -1.5)" fill="#5B7E9E"/>
      <path d="M 1 0.21 L 1 0.21 Q 1 0 1.21 0 L 1.79 0 Q 2 0 2 0.21 L 2 2.79 Q 2 3 1.79 3 L 0.21 3 Q 0 3 0 2.79 L 0 2.21 Q 0 2 0.21 2 L 0.79 2 Q 1 2 1 1.79 Z " transform="translate(1 1.5) scale(0.88) translate(-1 -1.5)" fill="url(#ic-diag)"/>
      <path d="M 1 0.21 L 1 0.21 Q 1 0 1.21 0 L 1.79 0 Q 2 0 2 0.21 L 2 2.79 Q 2 3 1.79 3 L 0.21 3 Q 0 3 0 2.79 L 0 2.21 Q 0 2 0.21 2 L 0.79 2 Q 1 2 1 1.79 Z " transform="translate(1 1.5) scale(0.88) translate(-1 -1.5)" fill="none" stroke="#2d5070" stroke-width="0.05"/>
      <path d="M 1 0.21 L 1 0.21 Q 1 0 1.21 0 L 1.79 0 Q 2 0 2 0.21 L 2 2.79 Q 2 3 1.79 3 L 0.21 3 Q 0 3 0 2.79 L 0 2.21 Q 0 2 0.21 2 L 0.79 2 Q 1 2 1 1.79 Z " transform="translate(1 1.5) scale(0.88) translate(-1 -1.5)" fill="none" stroke="#153858" stroke-width="0.065" stroke-dasharray="0.17 0.12" stroke-linecap="round"/>
      
    </g>
  </g>
  <g transform="translate(58 388)">
    <g transform="scale(66)">
      <path d="M 0 0.21 L 0 0.21 Q 0 0 0.21 0 L 3.79 0 Q 4 0 4 0.21 L 4 0.79 Q 4 1 3.79 1 L 0.21 1 Q 0 1 0 0.79 Z " transform="translate(2 0.5) scale(0.88) translate(-2 -0.5)" fill="#D9A13F"/>
      <path d="M 0 0.21 L 0 0.21 Q 0 0 0.21 0 L 3.79 0 Q 4 0 4 0.21 L 4 0.79 Q 4 1 3.79 1 L 0.21 1 Q 0 1 0 0.79 Z " transform="translate(2 0.5) scale(0.88) translate(-2 -0.5)" fill="url(#ic-diag)"/>
      <path d="M 0 0.21 L 0 0.21 Q 0 0 0.21 0 L 3.79 0 Q 4 0 4 0.21 L 4 0.79 Q 4 1 3.79 1 L 0.21 1 Q 0 1 0 0.79 Z " transform="translate(2 0.5) scale(0.88) translate(-2 -0.5)" fill="none" stroke="#ab7311" stroke-width="0.05"/>
      <path d="M 0 0.21 L 0 0.21 Q 0 0 0.21 0 L 3.79 0 Q 4 0 4 0.21 L 4 0.79 Q 4 1 3.79 1 L 0.21 1 Q 0 1 0 0.79 Z " transform="translate(2 0.5) scale(0.88) translate(-2 -0.5)" fill="none" stroke="#935b00" stroke-width="0.065" stroke-dasharray="0.17 0.12" stroke-linecap="round"/>
      
    </g>
  </g>
</svg>